<svg width="208" height="178" viewBox="0 0 208 178" fill="none" xmlns="http://www.w3.org/2000/svg">
<g clip-path="url(#clip0_565_4330)">
<path opacity="0.2" d="M94.2003 178.001C132.481 178.001 163.514 175.987 163.514 173.504C163.514 171.021 132.481 169.007 94.2003 169.007C55.9197 169.007 24.8871 171.021 24.8871 173.504C24.8871 175.987 55.9197 178.001 94.2003 178.001Z" fill="#FFF4F5"/>
<path d="M1.33772 105.31L60.6272 52.9692L96.8361 88.4719C96.8361 88.4719 182.021 72.6418 206.662 79.8375L160.056 142.348L60.6272 140.999L1.33772 105.31Z" fill="#F1C5F9"/>
<g opacity="0.3">
<path d="M1.33772 105.31L60.6272 52.9692L96.8361 88.4719C96.8361 88.4719 182.021 72.6418 206.662 79.8375L160.056 142.348L60.6272 140.999L1.33772 105.31Z" fill="#FDFDFD"/>
</g>
<path d="M160.056 143.498H160.034L60.6059 142.15C60.3385 142.146 60.0792 142.073 59.8603 141.942L0.570794 106.253C0.249035 106.059 0.0426103 105.753 0.00587991 105.418C-0.0308505 105.081 0.105787 104.748 0.379796 104.506L59.6686 52.1658C59.9286 51.9363 60.2908 51.8105 60.6618 51.8187C61.035 51.827 61.3868 51.9692 61.6322 52.2106L97.3231 87.2057C106.439 85.5395 183.355 71.8162 207.091 78.7483C207.481 78.8621 207.788 79.1238 207.924 79.4582C208.06 79.7926 208.01 80.1617 207.788 80.46L161.181 142.97C160.935 143.3 160.51 143.5 160.055 143.5L160.056 143.498ZM61.0585 139.853L159.332 141.186L204.578 80.5011C178.587 74.5848 97.949 89.4427 97.1189 89.5976C96.6429 89.686 96.1507 89.5457 95.8312 89.2316L60.5766 54.6638L3.39536 105.143L61.0585 139.853Z" fill="#FDFDFD"/>
<path d="M1.33772 105.31V115.671L60.6272 146.899V136.933L1.33772 105.31Z" fill="#39A1FF"/>
<g opacity="0.3">
<path d="M55.9441 134.435C55.9441 136.825 52.9014 138.292 50.5323 137.045L1.33772 111.133V115.67L60.6272 146.898V136.933L55.9441 134.435V134.435Z" fill="#FDFDFD"/>
</g>
<path d="M60.6272 148.05C60.3848 148.05 60.1431 147.994 59.9286 147.881L0.639109 116.652C0.242421 116.443 0 116.071 0 115.671V105.309C0 104.892 0.26299 104.507 0.686859 104.304C1.11146 104.1 1.6301 104.111 2.04295 104.331L61.3317 135.954C61.7255 136.164 61.965 136.534 61.965 136.933V146.898C61.965 147.315 61.7034 147.699 61.281 147.903C61.0776 148.001 60.852 148.049 60.6272 148.049V148.05ZM2.67618 115.026L59.2895 144.844V137.574L2.67618 107.378V115.026Z" fill="#FDFDFD"/>
<path d="M60.6273 136.933V146.899L160.056 147.762V136.933H60.6273Z" fill="#39A1FF"/>
<g opacity="0.3">
<path d="M75.1012 142.771C70.5797 142.732 66.7252 140.327 65.1142 136.933H60.628V146.899L160.057 147.762V143.509L75.102 142.771H75.1012Z" fill="#FDFDFD"/>
</g>
<path d="M160.056 148.913H160.043L60.614 148.049C59.8801 148.043 59.2895 147.529 59.2895 146.898V136.933C59.2895 136.297 59.8882 135.782 60.6272 135.782H160.056C160.795 135.782 161.393 136.297 161.393 136.933V147.762C161.393 148.069 161.251 148.364 160.997 148.58C160.746 148.793 160.408 148.913 160.056 148.913ZM61.965 145.759L158.718 146.599V138.084H61.965V145.759Z" fill="#FDFDFD"/>
<path d="M206.662 79.8379L160.056 136.933V147.762L206.662 93.0183V79.8379Z" fill="#FF926B"/>
<path d="M206.662 79.8379L160.056 136.933V147.762L206.662 93.0183V79.8379Z" fill="#39A1FF"/>
<g opacity="0.3">
<path d="M160.056 147.762L206.662 93.0185V88.1255L160.056 142.869V147.762Z" fill="#FDFDFD"/>
</g>
<path d="M160.056 148.913C159.917 148.913 159.777 148.894 159.64 148.856C159.09 148.701 158.718 148.26 158.718 147.762V136.933C158.718 136.696 158.803 136.465 158.961 136.271L205.568 79.1754C205.903 78.7646 206.509 78.5876 207.066 78.7393C207.622 78.891 208.001 79.3347 208.001 79.8372V93.0176C208.001 93.2622 207.91 93.5005 207.742 93.6977L161.136 148.441C160.879 148.743 160.474 148.912 160.057 148.912L160.056 148.913ZM161.394 137.297V144.242L205.325 92.6415V83.48L161.394 137.297Z" fill="#FDFDFD"/>
<path d="M60.6272 136.933L97.8344 86.8804C97.8344 86.8804 99.9215 57.511 56.7243 49.1035L3.95808 105.07C3.95808 105.07 36.7385 107.468 60.6272 136.934V136.933Z" fill="#F1C5F9"/>
<g opacity="0.3">
<path d="M60.6272 136.933L97.8344 86.8804C97.8344 86.8804 99.9215 57.511 56.7243 49.1035L3.95808 105.07C3.95808 105.07 36.7385 107.468 60.6272 136.934V136.933Z" fill="#FDFDFD"/>
</g>
<path d="M60.6273 138.085C60.1902 138.085 59.7802 137.901 59.5297 137.592C47.3984 122.629 32.9149 114.897 22.9 111.046C12.0307 106.867 3.92428 106.223 3.84348 106.217C3.34982 106.18 2.92007 105.912 2.72687 105.52C2.53367 105.127 2.60713 104.675 2.9186 104.345L55.6848 48.3789C56.0058 48.0388 56.5215 47.884 57.0189 47.9813C79.8439 52.4237 90.0946 62.7495 94.6742 70.6304C99.6555 79.2022 99.1913 86.6387 99.1692 86.9516C99.1553 87.1469 99.084 87.3366 98.9613 87.5015L61.7541 137.555C61.5132 137.879 61.1003 138.078 60.6537 138.085C60.6449 138.085 60.6361 138.085 60.6273 138.085V138.085ZM6.49101 104.211C9.76589 104.691 16.0923 105.918 23.8785 108.9C33.9176 112.745 48.2954 120.352 60.5677 134.876L96.5085 86.5262C96.5342 85.1217 96.3998 78.6864 92.2213 71.5558C86.0146 60.9645 74.2469 53.844 57.237 50.3864L6.49101 104.211Z" fill="#FDFDFD"/>
<path d="M60.6272 136.933L97.8344 86.8804C97.8344 86.8804 99.9215 57.511 56.7243 49.1035L2.50869 99.6013C2.50869 99.6013 45.8814 100.561 60.6272 136.933Z" fill="#F1C5F9"/>
<g opacity="0.3">
<path d="M61.6395 136.933L97.8352 86.8804C97.8352 86.8804 99.8649 57.511 57.8431 49.1035L5.10113 99.6013C5.10113 99.6013 47.2948 100.561 61.6395 136.933Z" fill="#FDFDFD"/>
</g>
<path d="M60.6272 138.085C60.5751 138.085 60.5237 138.082 60.4708 138.077C59.9624 138.025 59.5319 137.729 59.363 137.313C53.3869 122.572 42.0255 111.942 25.5938 105.717C13.2817 101.053 2.57995 100.755 2.47343 100.752C1.94892 100.74 1.48024 100.465 1.27602 100.049C1.0718 99.6328 1.1695 99.1524 1.52579 98.8206L55.7414 48.3228C56.0661 48.0207 56.5531 47.8905 57.0196 47.9808C79.8446 52.4232 90.0953 62.749 94.6749 70.6299C99.6563 79.2017 99.192 86.6383 99.17 86.9512C99.156 87.1465 99.0847 87.3361 98.9621 87.5011L61.7549 137.554C61.5073 137.888 61.0805 138.085 60.628 138.085L60.6272 138.085ZM5.36705 98.6354C9.45735 99.014 17.5189 100.156 26.5759 103.573C37.9359 107.859 52.8999 116.654 60.9497 134.363L96.5092 86.5264C96.5349 85.1219 96.4005 78.6866 92.222 71.556C86.0087 60.9526 74.2219 53.829 57.1805 50.3752L5.36705 98.6354Z" fill="#FDFDFD"/>
<path d="M60.6272 136.933L97.8344 86.8799C97.8344 86.8799 99.9214 57.5105 56.7243 49.103L5.10113 94.8759C5.10113 94.8759 52.9058 93.6528 60.6272 136.933Z" fill="#F1C5F9"/>
<g opacity="0.3">
<path d="M62.4234 136.933L97.8352 86.8799C97.8352 86.8799 99.8208 57.5105 58.7085 49.103L9.57636 94.8759C9.57636 94.8759 55.0751 93.6528 62.4234 136.933Z" fill="#FDFDFD"/>
</g>
<path d="M60.6272 138.084C60.5354 138.084 60.4429 138.076 60.3503 138.059C59.8052 137.96 59.3887 137.581 59.3042 137.108C56.1807 119.6 46.1547 107.37 29.5034 100.758C17.0121 95.7975 5.2554 96.0231 5.13933 96.0275C4.58617 96.0389 4.09545 95.7684 3.87654 95.3405C3.65689 94.9119 3.7612 94.4113 4.14026 94.075L55.7634 48.3021C56.0881 48.0139 56.5641 47.8925 57.0189 47.981C79.8439 52.4234 90.0946 62.7492 94.6742 70.6301C99.6555 79.2019 99.1913 86.6385 99.1692 86.9513C99.1553 87.1467 99.084 87.3363 98.9613 87.5013L61.7541 137.555C61.5051 137.89 61.0768 138.086 60.6272 138.086V138.084ZM8.18281 93.7969C12.6419 94.0346 21.3 94.9821 30.5274 98.6286C38.2173 101.668 44.6811 105.958 49.7381 111.383C55.4225 117.479 59.3211 125.018 61.3516 133.823L96.5092 86.5272C96.5349 85.1227 96.4005 78.6874 92.222 71.5568C86.0058 60.949 74.2124 53.8235 57.1592 50.3716L8.18281 93.7969Z" fill="#FDFDFD"/>
<path d="M101.43 83.7859L60.6273 136.933C78.216 128.19 107.149 121.495 155.373 131.644L201.344 79.8309C201.344 79.8309 148.171 54.3469 101.43 83.7853V83.7859Z" fill="#F1C5F9"/>
<g opacity="0.3">
<path d="M101.43 83.7862L60.6273 136.933C77.8494 128.373 104.886 119.52 151.277 128.682C153.121 129.046 155.045 128.472 156.244 127.213L201.344 79.8319C201.344 79.8319 148.171 54.3479 101.43 83.7862Z" fill="#FDFDFD"/>
</g>
<path d="M60.628 138.085C60.268 138.085 59.9132 137.96 59.6532 137.722C59.2278 137.334 59.169 136.745 59.5106 136.299L100.314 83.1515C100.401 83.0377 100.512 82.9379 100.64 82.857C111.468 76.0373 123.543 71.5817 136.528 69.6153C146.903 68.0439 157.872 68.0502 169.13 69.6336C188.277 72.3263 201.444 78.5619 201.995 78.8261C202.334 78.9886 202.574 79.2705 202.654 79.5973C202.733 79.9247 202.643 80.2648 202.407 80.5309L156.436 132.343C156.114 132.707 155.571 132.872 155.055 132.763C116.194 124.585 84.6489 126.323 61.2965 137.93C61.0871 138.035 60.8564 138.085 60.628 138.085ZM102.414 84.594L64.6551 133.776C87.8959 123.907 118.197 122.753 154.839 130.349L199.313 80.2243C195.454 78.5746 183.842 74.0241 168.609 71.8934C151.472 69.4965 126.1 69.76 102.414 84.594Z" fill="#FDFDFD"/>
<path d="M101.43 83.786L62.6915 134.245C71.6383 124.217 104.585 115.547 152.808 125.696L197.408 75.2326C197.408 75.2326 148.171 54.3477 101.43 83.786Z" fill="#F1C5F9"/>
<g opacity="0.3">
<path d="M99.9714 81.7108L71.9388 118.224C69.8341 120.966 73.0502 124.401 76.6204 123.236C92.0898 118.187 117.197 116.204 149.284 122.601C150.787 122.901 152.356 122.414 153.291 121.357L193.268 76.1231C193.183 73.9556 192.526 72.261 191.524 70.9184C179.669 55.0416 111.041 77.2406 101.593 80.3524C101.053 80.805 100.513 81.2575 99.9722 81.7101L99.9714 81.7108Z" fill="#FDFDFD"/>
</g>
<path d="M62.6908 135.396C62.4219 135.396 62.1501 135.326 61.915 135.182C61.3281 134.822 61.1782 134.128 61.5749 133.61L100.314 83.1513C100.401 83.0375 100.512 82.9377 100.64 82.8568C111.45 76.0485 123.296 71.3552 135.85 68.9071C145.889 66.9496 156.396 66.418 167.078 67.3244C185.262 68.8686 197.488 73.9835 197.999 74.2003C198.358 74.3526 198.618 74.6345 198.71 74.9689C198.802 75.3033 198.715 75.656 198.473 75.9297L153.873 126.393C153.552 126.757 153.008 126.923 152.491 126.814C102.513 116.297 71.5377 126.22 63.753 134.945C63.49 135.239 63.0933 135.395 62.6908 135.395V135.396ZM102.414 84.5931L68.9952 128.122C74.9485 125.01 83.1606 122.617 92.806 121.267C104.899 119.576 124.991 118.762 152.273 124.4L195.323 75.6895C191.54 74.3008 180.871 70.7965 166.712 69.6062C150.454 68.2397 126.121 69.7358 102.413 84.5925L102.414 84.5931Z" fill="#FDFDFD"/>
<path d="M101.43 83.7861L63.3526 133.109C72.2994 123.082 102.968 109.407 151.192 119.557L194.621 70.5324C194.621 70.5324 148.171 54.3484 101.43 83.7868V83.7861Z" fill="#F1C5F9"/>
<path d="M63.3519 134.261C63.0823 134.261 62.8105 134.191 62.5747 134.046C61.9877 133.685 61.8393 132.989 62.2382 132.472L100.316 83.149C100.403 83.0359 100.513 82.9373 100.64 82.857C125.088 67.4586 149.453 64.6332 165.585 64.9688C183.083 65.3361 194.639 69.2968 195.122 69.4649C195.509 69.5995 195.8 69.8814 195.911 70.2278C196.021 70.5742 195.937 70.9446 195.684 71.2297L152.256 120.254C151.933 120.618 151.39 120.784 150.874 120.674C129.893 116.259 109.842 115.984 92.8883 119.879C74.1617 124.181 66.3594 131.63 64.4142 133.81C64.1512 134.104 63.7545 134.26 63.3519 134.26V134.261ZM102.413 84.5946L70.5048 125.926C85.0618 117.253 112.891 110.5 150.657 118.261L192.447 71.0862C188.657 69.9971 178.7 67.5345 165.407 67.2684C149.757 66.9479 126.147 69.7108 102.413 84.5946Z" fill="#FDFDFD"/>
<path d="M101.43 83.7861L63.3527 133.109C72.2995 123.082 102.968 109.407 151.192 119.557L194.621 70.5324C194.621 70.5324 148.171 54.3484 101.43 83.7868V83.7861Z" fill="#F1C5F9"/>
<path d="M63.3519 134.261C63.0823 134.261 62.8105 134.191 62.5747 134.046C61.9877 133.685 61.8393 132.989 62.2382 132.472L100.316 83.149C100.403 83.0359 100.513 82.9373 100.64 82.857C125.088 67.4586 149.453 64.6332 165.585 64.9688C183.083 65.3361 194.639 69.2968 195.122 69.4649C195.509 69.5995 195.8 69.8814 195.911 70.2278C196.021 70.5742 195.937 70.9446 195.684 71.2297L152.256 120.254C151.933 120.618 151.39 120.784 150.874 120.674C129.893 116.259 109.842 115.984 92.8883 119.879C74.1617 124.181 66.3594 131.63 64.4142 133.81C64.1512 134.104 63.7545 134.26 63.3519 134.26V134.261ZM102.413 84.5946L70.5048 125.926C85.0618 117.253 112.891 110.5 150.657 118.261L192.447 71.0862C188.657 69.9971 178.7 67.5345 165.407 67.2684C149.757 66.9479 126.147 69.7108 102.413 84.5946Z" fill="#FDFDFD"/>
<g opacity="0.3">
<path d="M98.8901 82.4155L61.3457 127.918C67.4474 125.825 73.5498 123.733 79.6514 121.64C85.8853 118.89 93.7684 116.213 103.138 114.678C116.04 112.564 126.89 113.411 130.733 113.959C137.157 114.873 141.814 115.536 144.003 116.035C144.099 116.057 144.367 116.119 144.741 116.157C146.867 116.375 148.758 115.462 150.138 114.53L190.775 70.1877C190.775 70.1877 144.976 55.2571 98.8901 82.4155Z" fill="#FDFDFD"/>
</g>
<path d="M101.43 83.7859L63.3527 133.109C72.2995 123.082 97.091 102.787 145.314 112.937L188.376 64.849C188.376 64.849 148.171 54.3475 101.43 83.7859Z" fill="#F1C5F9"/>
<path d="M63.3519 134.261C63.0823 134.261 62.8105 134.191 62.5747 134.046C61.9877 133.685 61.8393 132.989 62.2382 132.472L100.316 83.149C100.403 83.0359 100.513 82.9373 100.64 82.857C125.038 67.4902 147.653 63.1042 162.328 62.1301C178.29 61.0726 188.345 63.6376 188.765 63.7476C189.186 63.8576 189.517 64.1383 189.651 64.4986C189.785 64.8588 189.705 65.2526 189.436 65.5522L146.374 113.64C146.051 114.001 145.51 114.163 144.997 114.055C97.1571 103.987 72.7064 124.517 64.4142 133.81C64.1512 134.105 63.7545 134.261 63.3519 134.261ZM102.413 84.5946L72.6447 123.153C77.0325 120.005 82.4628 116.906 89.0654 114.403C105.157 108.304 123.9 107.375 144.785 111.642L186.065 65.544C182.45 64.8664 173.955 63.6547 162.396 64.4353C148.139 65.3987 126.174 69.6804 102.413 84.5946H102.413Z" fill="#FDFDFD"/>
<path d="M63.3526 133.109L101.43 83.7853C101.43 83.7853 101.239 46.4294 58.7459 44.5615L9.44927 88.4002C9.44927 88.4002 55.9595 84.2056 63.3526 133.109V133.109Z" fill="#F1C5F9"/>
<path d="M63.3526 134.26C63.252 134.26 63.1506 134.251 63.0492 134.231C62.5056 134.122 62.0979 133.734 62.0252 133.258C59.0287 113.438 49.3201 100.063 33.1676 93.5023C21.0877 88.5954 9.70051 89.5353 9.58664 89.5455C9.02687 89.5916 8.49134 89.3381 8.24525 88.9032C7.99989 88.4684 8.09539 87.9475 8.48693 87.5999L57.7828 43.7618C58.051 43.5229 58.4241 43.3889 58.8128 43.4129C81.4189 44.4066 92.1801 55.3607 97.2269 64.3756C102.655 74.0706 102.765 83.3895 102.767 83.7814C102.768 84.0096 102.69 84.2334 102.543 84.4236L64.4656 133.747C64.2143 134.073 63.7927 134.261 63.3512 134.261L63.3526 134.26ZM12.7117 87.1549C17.1641 87.1947 25.4219 87.8325 34.1968 91.3735C41.6942 94.3986 47.9861 98.9232 52.8984 104.821C58.4565 111.495 62.2404 119.945 64.1673 129.973L100.082 83.4521C100.006 81.7101 99.4087 73.5333 94.7777 65.3035C87.9672 53.199 76.0268 46.6189 59.2814 45.7415L12.7117 87.1549Z" fill="#FDFDFD"/>
<g opacity="0.3">
<path d="M107.975 107.038C101.89 107.973 96.9757 104.129 96.388 99.5821C98.2554 99.0663 100.212 98.6296 102.121 98.3786C104.422 98.0759 106.492 96.9248 107.571 95.1499C108.032 94.3927 108.273 93.5943 107.986 92.8851C107.446 91.5501 103.276 91.5862 99.0524 92.6076L109.169 79.2383C106.613 80.6384 104.032 82.1465 101.43 83.7855C101.43 83.7855 101.412 80.6782 100.372 76.2144L88.0678 92.4262C86.4186 91.2019 84.4036 90.0906 82.4532 90.0066C81.3381 89.9585 80.3346 90.2228 79.4861 90.6779C76.4632 92.3017 76.5499 96.1063 79.5067 97.8192C80.2626 98.2573 81.1485 98.8426 82.0727 99.603C74.0676 106.471 60.7308 106.619 52.4187 99.3217C41.4297 89.6754 25.3366 85.7811 14.1611 84.209L9.44927 88.3992C9.44927 88.3992 55.9595 84.2046 63.3526 133.108C72.2994 123.081 97.091 102.786 145.314 112.936L148.151 109.768C134.293 104.916 119.777 105.222 107.975 107.037V107.038Z" fill="#FDFDFD"/>
</g>
<g opacity="0.55">
<mask id="mask0_565_4330" style="mask-type:luminance" maskUnits="userSpaceOnUse" x="89" y="24" width="49" height="45">
<path d="M137.31 44.9169C137.31 51.2371 134.026 56.8956 128.851 60.7033C125.931 62.8506 123.325 65.2765 121.114 67.9623L121.02 67.9048C119.946 69.1108 113.447 68.9641 105.871 67.5046C98.2583 66.0395 92.2837 63.7772 91.959 62.2924C91.959 62.2317 91.9553 62.1717 91.9487 62.1142V62.1028C91.721 58.1111 91.0422 54.1479 89.8448 50.2795C89.2792 48.4604 88.9949 46.5439 89.0353 44.5604C89.2527 33.2523 100.137 24.0939 113.28 24.1457C126.562 24.1976 137.309 33.4767 137.309 44.9175L137.31 44.9169Z" fill="white"/>
</mask>
<g mask="url(#mask0_565_4330)">
<path d="M137.31 24.0938H88.9956V69.1106H137.31V24.0938Z" fill="#FFE610"/>
<path d="M103.094 69.4268H95.6681V71.0456C93.2475 70.4792 90.8828 69.813 88.5798 69.0532H88.6283V23.7778H137.677V69.4268H103.094Z" fill="#FFE610"/>
<path d="M103.27 71.5279C98.2869 70.8174 93.5054 69.6891 88.9655 68.1917C88.3984 68.0046 87.8342 67.8118 87.2744 67.6127H88.6283V23.7778H137.677V68.9388H139.119C136.89 69.6032 134.616 70.1765 132.306 70.6543V69.4274H103.269V71.5285L103.27 71.5279Z" fill="#FFE611"/>
<path d="M103.445 70.6164C98.5352 69.916 93.8242 68.8042 89.3512 67.3289C88.7921 67.1443 88.2368 66.9541 87.6851 66.7588H88.6283V23.7778H137.677V68.0653H138.769C136.572 68.7201 134.332 69.2846 132.055 69.7555V69.4268H103.445V70.6164H103.445Z" fill="#FFE512"/>
<path d="M103.621 69.7049C98.7843 69.0153 94.143 67.9199 89.7368 66.4661C88.6349 66.1026 87.5484 65.7171 86.4767 65.3094H88.6283V23.7778H137.677V67.1917H138.419C136.254 67.8365 134.048 68.3933 131.805 68.8567C122.835 70.7119 113.294 71.0842 103.62 69.7049H103.621Z" fill="#FFE513"/>
<path d="M103.797 68.7935C99.0326 68.114 94.4618 67.0356 90.1218 65.6039C89.0368 65.2462 87.9664 64.8663 86.9108 64.4649H88.6283V23.7778H137.677V66.3182H138.068C135.936 66.9534 133.763 67.5015 131.554 67.9585C122.72 69.7858 113.324 70.1525 103.797 68.7941V68.7935Z" fill="#FEE414"/>
<path d="M103.972 67.882C99.2816 67.2132 94.7807 66.1507 90.5074 64.7411C89.4393 64.3884 88.3852 64.0149 87.3457 63.6198H88.6283V23.7778H137.677V65.4446H137.718C135.619 66.0698 133.479 66.6096 131.304 67.0596C122.605 68.8586 113.353 69.2201 103.972 67.882Z" fill="#FEE415"/>
<path d="M104.148 66.9705C99.5299 66.3119 95.0995 65.2664 90.8931 63.8789C89.8412 63.5319 88.8039 63.1641 87.7806 62.7747H88.6283V23.7778H137.677V64.0939H138.909C138.397 64.2582 137.883 64.4175 137.367 64.5711C135.3 65.1867 133.194 65.7177 131.053 66.1608C122.49 67.9319 113.382 68.2878 104.148 66.9705Z" fill="#FEE416"/>
<path d="M104.323 66.059C99.7789 65.4111 95.4183 64.3821 91.2788 63.0161C90.2437 62.6748 89.2226 62.312 88.2162 61.9296H88.6291V23.7778H137.678V62.7267H140.036C139.04 63.0705 138.034 63.3941 137.017 63.6975C134.984 64.3037 132.911 64.8265 130.804 65.262C122.376 67.0053 113.413 67.3548 104.324 66.059H104.323Z" fill="#FEE317"/>
<path d="M104.499 65.1476C100.027 64.5098 95.7371 63.4972 91.6645 62.154C90.6463 61.8183 89.6413 61.4612 88.6511 61.0851C88.156 60.8968 87.6638 60.7033 87.176 60.5055H88.6291V23.7778H137.678V61.8689H139.637C138.657 62.2071 137.667 62.5256 136.667 62.824C134.666 63.4201 132.626 63.9346 130.553 64.3631C122.262 66.078 113.442 66.4225 104.5 65.1469L104.499 65.1476Z" fill="#FEE318"/>
<path d="M104.674 64.2361C100.276 63.609 96.0559 62.6129 92.0494 61.2912C90.0461 60.6306 88.0965 59.8879 86.2041 59.0694H88.6283V23.7778H137.677V61.0112H139.238C138.274 61.3443 137.3 61.6572 136.315 61.9504C134.347 62.537 132.341 63.0427 130.302 63.4643C122.146 65.1513 113.471 65.4902 104.674 64.2355V64.2361Z" fill="#FEE319"/>
<path d="M104.85 63.3246C100.525 62.7077 96.3748 61.7286 92.4351 60.429C90.4648 59.7792 88.5475 59.0491 86.6868 58.2445H88.6283V23.7778H137.677V60.1534H138.838C137.89 60.4808 136.932 60.7887 135.964 61.0775C134.029 61.654 132.056 62.1514 130.051 62.5667C122.03 64.2253 113.499 64.5584 104.849 63.3252L104.85 63.3246Z" fill="#FEE21A"/>
<path d="M105.026 62.4131C100.774 61.807 96.6936 60.8443 92.8207 59.5662C90.8843 58.9272 88.9993 58.2097 87.1701 57.4184H88.6291V23.7778H137.678V59.2957H138.44C137.508 59.6174 136.566 59.9202 135.615 60.204C133.712 60.771 131.772 61.2602 129.801 61.6679C121.916 63.2987 113.529 63.6261 105.026 62.4138V62.4131Z" fill="#FEE21B"/>
<path d="M105.201 61.5017C101.023 60.9056 97.0131 59.9594 93.2064 58.704C91.303 58.0764 89.4503 57.3709 87.6528 56.5935H88.6291V23.7778H137.678V58.4379H138.041C137.125 58.754 136.199 59.0517 135.265 59.3304C133.395 59.8873 131.488 60.3683 129.551 60.7691C121.802 62.3721 113.559 62.6938 105.202 61.5017H105.201Z" fill="#FDE11C"/>
<path d="M105.377 60.5902C101.271 60.0049 97.332 59.0751 93.5913 57.8412C91.721 57.2243 89.9014 56.5315 88.1347 55.7673H88.6283V23.7778H137.677V57.0998H138.984C138.538 57.2641 138.091 57.424 137.641 57.5795C136.742 57.8905 135.832 58.1825 134.914 58.4562C133.077 59.0036 131.203 59.4758 129.3 59.8696C121.686 61.4441 113.588 61.7608 105.377 60.5896V60.5902Z" fill="#FDE11D"/>
<path d="M105.552 59.6786C101.52 59.1034 97.6508 58.1906 93.977 56.9789C92.1405 56.3727 90.3524 55.6926 88.618 54.9423H88.6283V23.7783H137.677V55.7533H139.864C136.408 57.1167 132.788 58.1988 129.049 58.9719C121.57 60.5186 113.617 60.829 105.551 59.6792L105.552 59.6786Z" fill="#FDE11E"/>
<path d="M105.728 58.7672C101.768 58.2028 97.9696 57.3058 94.3627 56.1162C92.5592 55.5214 90.8042 54.8533 89.1007 54.1163C88.2493 53.7478 87.4103 53.3622 86.5854 52.9602H88.6283V23.7778H137.677V54.9121H139.417C136.025 56.2509 132.47 57.3134 128.798 58.0726C121.456 59.5908 113.646 59.8961 105.727 58.7666L105.728 58.7672Z" fill="#FDE01F"/>
<path d="M105.903 57.8558C102.017 57.3014 98.2884 56.4215 94.7483 55.2534C92.9779 54.6694 91.2553 54.0139 89.5833 53.2908C88.7473 52.9292 87.9246 52.5506 87.1143 52.1562H88.6283V23.7778H137.677V54.0721H138.97C135.64 55.3855 132.152 56.4291 128.548 57.1744C121.341 58.6648 113.676 58.9644 105.903 57.8558H105.903Z" fill="#FDE020"/>
<path d="M106.079 56.9443C102.266 56.4007 98.6072 55.5372 95.1333 54.3913C93.3967 53.8186 91.7063 53.1745 90.0659 52.4653C89.2461 52.1107 88.4381 51.739 87.6432 51.3522H88.6283V23.7778H137.677V53.232H138.524C135.256 54.5208 131.833 55.5442 128.297 56.2755C121.226 57.7382 113.705 58.0315 106.079 56.9443Z" fill="#FDDF21"/>
<path d="M106.255 56.0323C102.515 55.4988 98.9261 54.6518 95.519 53.528C93.8154 52.966 92.1574 52.3346 90.5486 51.6386C89.7442 51.291 88.9523 50.9263 88.1729 50.547H88.6283V23.7773H137.677V52.3908H138.077C134.872 53.655 131.515 54.6588 128.047 55.3762C121.111 56.8104 113.734 57.0987 106.255 56.0323Z" fill="#FDDF22"/>
<path d="M106.43 55.1208C99.0965 54.0747 92.3565 51.7998 86.4473 48.5806H88.6283V23.7773H137.677V50.5736H139.958C139.192 50.9149 138.416 51.2411 137.63 51.5508C134.488 52.7903 131.197 53.7745 127.796 54.478C120.996 55.8844 113.764 56.167 106.43 55.1208Z" fill="#FCDF23"/>
<path d="M106.606 54.2092C99.4182 53.184 92.8126 50.9546 87.0217 47.7998H88.6283V23.7778H137.677V49.753H139.465C138.714 50.0874 137.953 50.4072 137.183 50.7106C134.104 51.9255 130.877 52.89 127.545 53.579C120.881 54.9576 113.792 55.2345 106.605 54.2092H106.606Z" fill="#FCDE24"/>
<path d="M106.781 53.2979C99.74 52.2935 93.2688 50.109 87.5955 47.0187H88.6283V23.7773H137.677V48.932H138.972C138.236 49.2601 137.491 49.573 136.737 49.8701C133.72 51.0603 130.56 52.0053 127.295 52.6803C120.767 54.0305 113.822 54.3017 106.781 53.2979Z" fill="#FCDE25"/>
<path d="M106.957 52.3864C100.062 51.4029 93.725 49.2639 88.1699 46.2374H88.6283V23.7773H137.677V48.111H138.479C137.758 48.4321 137.029 48.7386 136.29 49.0294C133.337 50.195 130.242 51.1203 127.045 51.7815C120.651 53.1038 113.852 53.3693 106.957 52.3858V52.3864Z" fill="#FCDE27"/>
<path d="M107.132 51.4748C100.384 50.5121 94.1812 48.4186 88.7436 45.4567C88.0641 45.0863 87.3964 44.7026 86.7411 44.3056H88.6283V23.7778H137.677V46.3056H140.072C138.7 46.9907 137.289 47.6197 135.843 48.1898C132.952 49.3307 129.922 50.2359 126.793 50.8832C120.536 52.177 113.88 52.4375 107.132 51.4748H107.132Z" fill="#FCDD28"/>
<path d="M107.308 50.5633C100.706 49.6215 94.6374 47.5735 89.3181 44.6754C88.6533 44.3132 88.0002 43.9377 87.3589 43.5496H88.629V23.7778H137.678V45.506H139.535C138.193 46.176 136.812 46.7916 135.398 47.3498C132.569 48.466 129.606 49.3516 126.544 49.985C120.422 51.251 113.911 51.5051 107.309 50.564L107.308 50.5633Z" fill="#FCDD29"/>
<path d="M107.484 49.652C101.028 48.731 95.0943 46.7286 89.8918 43.8949C88.5916 43.1863 87.3369 42.4259 86.1306 41.6175H88.6283V23.7773H137.677V44.7059H138.996C137.683 45.3614 136.333 45.9631 134.951 46.5086C132.185 47.5996 129.287 48.4662 126.293 49.0856C120.307 50.3239 113.94 50.5723 107.484 49.652Z" fill="#FCDC2A"/>
<path d="M107.659 48.7404C101.35 47.8403 95.5505 45.8827 90.4663 43.1135C89.1954 42.4214 87.9686 41.678 86.7903 40.8879H88.6283V23.7778H137.677V43.9074H138.458C137.175 44.5477 135.855 45.1362 134.503 45.669C131.8 46.7354 128.967 47.5824 126.042 48.1873C120.192 49.3971 113.969 49.6405 107.658 48.7404H107.659Z" fill="#FBDC2B"/>
<path d="M107.835 47.8289C101.671 46.9497 96.0067 45.0376 91.04 42.3322C89.7986 41.6559 88.6004 40.9303 87.4493 40.1585H88.6283V23.7778H137.677V43.1078H137.919C136.666 43.7336 135.377 44.3081 134.057 44.829C131.416 45.8707 128.649 46.6981 125.791 47.2891C120.076 48.4711 113.998 48.7088 107.834 47.8295L107.835 47.8289Z" fill="#FBDC2C"/>
<path d="M108.01 46.9174C101.993 46.059 96.4629 44.1925 91.6145 41.5516C90.4024 40.8911 89.2329 40.1825 88.1089 39.429H88.6283V23.7778H137.677V41.355H139.189C138.596 41.685 137.993 42.0029 137.381 42.3082C136.157 42.9188 134.899 43.4801 133.61 43.9883C131.032 45.0053 128.331 45.8132 125.541 46.3896C119.962 47.5438 114.027 47.7752 108.009 46.9174H108.01Z" fill="#FBDB2D"/>
<path d="M108.186 46.0059C102.315 45.1684 96.9191 43.3474 92.1882 40.7703C91.0055 40.1262 89.8647 39.4347 88.7679 38.6996C88.2199 38.3324 87.6829 37.9537 87.1569 37.565H88.6276V23.7778H137.677V40.5788H138.606C138.026 40.9005 137.439 41.2109 136.841 41.5086C135.648 42.1047 134.42 42.6521 133.162 43.1483C130.647 44.1406 128.011 44.9282 125.29 45.4914C119.846 46.6172 114.055 46.8435 108.185 46.0059H108.186Z" fill="#FBDB2E"/>
<path d="M108.361 45.0946C102.637 44.278 97.3753 42.5024 92.7627 39.9892C90.456 38.7326 88.3124 37.2921 86.3532 35.6954H88.6283V23.7773H137.677V38.8262H139.692C130.945 44.2122 119.81 46.7267 108.361 45.094V45.0946Z" fill="#FBDA2F"/>
<path d="M108.537 44.183C102.958 43.3872 97.8315 41.6565 93.3364 39.2084C91.0893 37.9841 88.9993 36.5802 87.0908 35.0246H88.6276V23.7778H137.677V38.0757H139.067C130.544 43.324 119.693 45.7746 108.536 44.1836L108.537 44.183Z" fill="#FBDA30"/>
<path d="M108.713 43.2717C103.28 42.4967 98.2877 40.8116 93.9109 38.4273C91.7225 37.2352 89.6876 35.868 87.8291 34.3529H88.6283V23.7773H137.677V37.3237H138.442C130.143 42.4341 119.577 44.8209 108.713 43.2717Z" fill="#FBDA31"/>
<path d="M108.888 42.3602C103.602 41.6061 98.7439 39.9665 94.4846 37.6461C92.355 36.4862 90.3752 35.1556 88.5666 33.6816H88.6283V23.7773H137.677V36.5721H137.817C129.741 41.5454 119.46 43.8671 108.888 42.3596V42.3602Z" fill="#FBD932"/>
<path d="M109.064 41.4487C103.924 40.7155 99.2001 39.1214 95.0591 36.8654C92.9882 35.7378 91.0636 34.4439 89.3049 33.0103C88.4256 32.2935 87.5881 31.5413 86.7947 30.7575H88.6291V23.7773H137.678V33.8889H140.034C139.123 34.5716 138.175 35.2163 137.193 35.8206C129.34 40.6561 119.344 42.9139 109.064 41.4481L109.064 41.4487Z" fill="#FAD933"/>
<path d="M109.239 40.5371C104.246 39.8247 99.6563 38.2761 95.6335 36.084C93.6222 34.988 91.7519 33.7314 90.0432 32.3389C89.1888 31.6423 88.3749 30.9122 87.6043 30.1506H88.6291V23.7778H137.678V33.1928H139.328C138.443 33.8559 137.522 34.4823 136.568 35.0695C128.939 39.7672 119.226 41.9612 109.24 40.5365L109.239 40.5371Z" fill="#FAD834"/>
<path d="M109.415 39.6258C99.7209 38.2434 91.5954 33.6108 86.2952 27.238H88.6283V23.7773H137.677V32.4964H138.621C137.763 33.1405 136.868 33.7486 135.942 34.3181C128.537 38.8786 119.109 41.0075 109.415 39.6251V39.6258Z" fill="#FAD835"/>
<path d="M109.59 38.7141C100.189 37.3735 92.3087 32.8806 87.1686 26.7006H88.6283V23.7778H137.677V31.8003H137.916C137.083 32.4248 136.216 33.0146 135.318 33.567C128.136 37.9898 118.992 40.0548 109.59 38.7141Z" fill="#FAD836"/>
<path d="M109.766 37.8027C100.657 36.5037 93.022 32.1505 88.0421 26.1627H88.6283V23.7778H137.677V29.1898H139.53C138.054 30.5305 136.433 31.7447 134.693 32.8161C127.734 37.101 118.875 39.1022 109.766 37.8027Z" fill="#FAD737"/>
<path d="M109.942 36.8913C101.125 35.6341 93.7353 31.4206 88.9148 25.6249C88.3124 24.9005 87.7497 24.1515 87.2296 23.3804L88.6276 23.778H137.677V28.5547H138.749C137.32 29.8524 135.751 31.0274 134.068 32.0647C127.332 36.2125 118.758 38.1485 109.942 36.8913Z" fill="#FAD738"/>
<path d="M110.117 35.9798C101.593 34.7643 94.4486 30.6904 89.7883 25.0876C89.2057 24.3872 88.6621 23.6629 88.1596 22.917L88.6283 23.7779H137.677V27.92H137.97C136.588 29.1747 135.071 30.3106 133.443 31.3131C126.931 35.323 118.641 37.1953 110.117 35.9798Z" fill="#FAD739"/>
<path d="M110.293 35.0683C102.061 33.8945 95.1619 29.9603 90.6617 24.5496C90.099 23.8733 89.5745 23.1736 89.0889 22.4536V23.7772H137.678V25.3827H139.091C138.492 26.0439 137.857 26.6785 137.19 27.2847C135.856 28.4964 134.391 29.5937 132.819 30.5614C126.531 34.4336 118.525 36.242 110.294 35.0676L110.293 35.0683Z" fill="#F9D63A"/>
<path d="M110.468 34.1567C102.529 33.0246 95.8752 29.2308 91.5344 24.0117C90.9915 23.3593 90.4854 22.6849 90.0175 21.9902V23.7772H137.677L139.869 22.8252C137.845 25.5774 135.226 27.9426 132.194 29.8098C126.129 33.5442 118.408 35.2882 110.469 34.1561L110.468 34.1567Z" fill="#F9D63B"/>
<path d="M110.644 33.2451C102.997 32.1547 96.5885 28.5006 92.4079 23.4742V23.7776H137.677L138.961 22.332C137.011 24.983 134.489 27.2604 131.568 29.0594C125.727 32.6566 118.29 34.3361 110.644 33.2457V33.2451Z" fill="#F9D53C"/>
<path d="M110.819 32.3338C103.465 31.2851 97.3018 27.7707 93.2813 22.9365V23.7778H137.677L138.054 21.8379C136.178 24.3871 133.752 26.5779 130.943 28.3073C125.325 31.7668 118.174 33.3824 110.819 32.3331V32.3338Z" fill="#F9D53D"/>
</g>
</g>
<path d="M137.562 44.9169C137.562 51.2371 134.278 56.8956 129.103 60.7033C126.183 62.8506 123.577 65.2765 121.366 67.9623L121.273 67.9048C120.199 69.1108 113.7 68.9641 106.124 67.5046C98.511 66.0395 92.5364 63.7772 92.2125 62.2924C92.2125 62.2317 92.2088 62.1717 92.2022 62.1142V62.1028C91.9745 58.1111 91.2957 54.1479 90.0983 50.2795C89.5326 48.4604 89.2483 46.5439 89.2887 44.5604C89.5062 33.2523 100.391 24.0939 113.533 24.1457C126.815 24.1976 137.563 33.4767 137.563 44.9175L137.562 44.9169Z" fill="#FEDA24"/>
<path d="M92.7634 79.838L93.025 82.5889C93.3239 85.7342 96.0324 88.3491 99.6475 88.8795C99.7077 88.8883 99.7687 88.8972 99.8304 88.9054C103.199 89.3662 106.534 87.9117 108.159 85.3309L109.715 82.8594L92.7642 79.8374L92.7634 79.838Z" fill="#5E4C80"/>
<path d="M101.07 89.8535C100.607 89.8535 100.14 89.8225 99.6731 89.7587C99.6063 89.7498 99.5394 89.7403 99.4726 89.7302C95.43 89.1373 92.3645 86.2297 92.0259 82.6597L91.7643 79.9082C91.7386 79.637 91.8628 79.3709 92.1001 79.1907C92.3373 79.0106 92.6584 78.9366 92.9684 78.9923L109.919 82.0143C110.229 82.0693 110.492 82.2482 110.625 82.496C110.759 82.7437 110.749 83.0313 110.598 83.2715L109.042 85.743C107.433 88.2979 104.345 89.8535 101.071 89.8535H101.07ZM93.8734 80.9176L94.0255 82.5187C94.2899 85.3018 96.6708 87.5672 99.8164 88.028L99.9876 88.0527C102.914 88.4515 105.845 87.1943 107.277 84.92L108.19 83.47L93.8741 80.9176H93.8734Z" fill="#FDFDFD"/>
<path d="M113.363 80.8715L91.6799 76.4165C91.6799 76.4165 90.2239 78.1807 90.8623 79.7919C91.328 80.9657 95.7415 82.6173 101.43 83.7861C107.417 85.0161 111.295 85.0806 112.746 83.7785C113.706 82.3784 113.363 80.8715 113.363 80.8715H113.363Z" fill="#9DA9B9"/>
<g opacity="0.3">
<path d="M113.363 80.8715L91.6799 76.4165C91.6799 76.4165 90.2239 78.1807 90.8623 79.7919C91.328 80.9657 95.7415 82.6173 101.43 83.7861C107.417 85.0161 111.295 85.0806 112.746 83.7785C113.706 82.3784 113.363 80.8715 113.363 80.8715H113.363Z" fill="#FDFDFD"/>
</g>
<path d="M108.84 85.5944C106.866 85.5944 104.339 85.2714 101.197 84.626C98.7769 84.1285 90.8093 82.3309 89.9131 80.0705C89.1175 78.0649 90.7902 76.0036 90.8615 75.917C91.0988 75.6301 91.5138 75.4948 91.9127 75.577L113.596 80.0313C113.979 80.1097 114.272 80.3733 114.348 80.7045C114.365 80.7791 114.752 82.5534 113.61 84.217C113.571 84.2745 113.524 84.3276 113.471 84.3757C112.566 85.1885 111.049 85.5937 108.84 85.5937V85.5944ZM92.172 77.4056C91.854 77.9656 91.5344 78.8107 91.8128 79.513C92.0839 80.0579 95.2545 81.6292 101.663 82.9459C108.904 84.4338 111.211 83.8074 111.944 83.2455C112.329 82.6355 112.415 81.9984 112.419 81.5648L92.172 77.4056Z" fill="#FDFDFD"/>
<path d="M117.355 76.6946L89.4915 71.0449C89.4915 71.0449 87.5771 73.3577 88.344 75.2104C88.9031 76.5606 94.2826 78.8702 101.593 80.3518C109.287 81.9118 114.296 82.0882 116.218 80.6426C117.51 79.0725 117.355 76.6939 117.355 76.6939V76.6946Z" fill="#9DA9B9"/>
<path d="M111.609 82.4972C109.034 82.4972 105.651 82.063 101.363 81.1932C95.0664 79.9164 88.2485 77.5511 87.3993 75.5013C86.4671 73.2504 88.5842 70.6544 88.6746 70.545C88.9111 70.2593 89.3247 70.1253 89.7222 70.2056L117.586 75.8552C118.019 75.9431 118.333 76.2655 118.358 76.6472C118.365 76.7566 118.516 79.3475 117.038 81.1433C116.992 81.1989 116.939 81.2495 116.879 81.2944C115.813 82.0965 114.084 82.4979 111.609 82.4979V82.4972ZM89.9638 72.0286C89.4849 72.7751 88.9104 74.0057 89.2895 74.9216C89.6156 75.7029 94.2077 77.9683 101.823 79.5125C110.942 81.362 114.286 80.8494 115.469 80.0567C116.114 79.2116 116.294 78.0758 116.341 77.3767L89.9638 72.0286Z" fill="#FDFDFD"/>
<path d="M117.355 76.6946C116.871 78.4613 110.242 78.6295 102.547 77.0688C94.8526 75.5088 89.0074 72.8117 89.4915 71.045C89.9756 69.2777 96.6054 69.1102 104.3 70.6702C111.994 72.2302 117.839 74.9273 117.355 76.6946Z" fill="#9DA9B9"/>
<g opacity="0.3">
<path d="M117.355 76.6946C116.871 78.4613 110.242 78.6295 102.547 77.0688C94.8526 75.5088 89.0074 72.8117 89.4915 71.045C89.9756 69.2777 96.6054 69.1102 104.3 70.6702C111.994 72.2302 117.839 74.9273 117.355 76.6946Z" fill="#FDFDFD"/>
</g>
<path d="M111.937 78.9995C109.066 78.9995 105.599 78.5753 102.317 77.9098C95.137 76.454 87.7549 73.6229 88.5145 70.8474C89.2748 68.0719 97.3496 68.3747 104.53 69.8304C108.333 70.6015 111.828 71.6723 114.368 72.8442C117.357 74.2234 118.69 75.5849 118.331 76.8934C117.919 78.4003 115.349 79.0001 111.937 79.0001V78.9995ZM94.8865 70.4719C92.1199 70.4719 90.5706 70.8676 90.4678 71.2437C90.2805 71.9283 94.3619 74.523 102.777 76.229C111.193 77.9357 116.191 77.1816 116.378 76.497C116.415 76.3624 116.005 75.559 113.42 74.3663C111.029 73.2633 107.708 72.2494 104.069 71.5111C100.269 70.7406 97.1645 70.4719 94.8865 70.4719Z" fill="#FDFDFD"/>
<path d="M116.473 71.3226L93.7529 66.8892C93.7529 66.8892 92.2558 68.7475 92.9456 70.4244C93.4481 71.6463 98.0835 73.327 104.043 74.4901C110.318 75.7144 114.37 75.7422 115.868 74.3668C116.853 72.894 116.473 71.3226 116.473 71.3226Z" fill="#9DA9B9"/>
<g opacity="0.3">
<path d="M116.473 71.3226L93.7529 66.8892C93.7529 66.8892 92.2558 68.7475 92.9456 70.4244C93.4481 71.6463 98.0835 73.327 104.043 74.4901C110.318 75.7144 114.37 75.7422 115.868 74.3668C116.853 72.894 116.473 71.3226 116.473 71.3226Z" fill="#FDFDFD"/>
</g>
<path d="M111.623 76.2665C109.593 76.2665 107.012 75.9543 103.822 75.3317C101.291 74.838 92.9596 73.0448 91.9994 70.7123C91.1488 68.6422 92.8553 66.4874 92.928 66.3964C93.1609 66.1069 93.5744 65.9672 93.9748 66.0462L116.695 70.4797C117.078 70.5543 117.376 70.8147 117.455 71.146C117.473 71.2237 117.9 73.0587 116.738 74.7963C116.7 74.8538 116.654 74.9075 116.601 74.9562C115.649 75.8304 114.021 76.2659 111.623 76.2659V76.2665ZM94.2554 67.8717C93.9219 68.4672 93.5811 69.3818 93.8911 70.1359C94.1665 70.7067 97.4928 72.3254 104.265 73.6478C111.887 75.1351 114.298 74.4436 115.059 73.8412C115.469 73.1769 115.546 72.4847 115.54 72.0252L94.2554 67.8717Z" fill="#FDFDFD"/>
<path d="M121.158 67.6584L91.9634 62.0391C91.9634 62.0391 90.2305 63.7918 91.0577 65.7197C91.66 67.1249 97.3143 69.4832 104.973 70.9572C113.035 72.509 118.273 72.6418 120.261 71.1115C121.589 69.4579 121.158 67.6577 121.158 67.6577V67.6584Z" fill="#9DA9B9"/>
<path d="M115.231 73.0595C112.575 73.0595 109.114 72.6398 104.754 71.8004C98.1679 70.5331 91.0253 68.14 90.1159 66.0193C89.097 63.6445 91.1127 61.5669 91.1987 61.4796C91.4396 61.2356 91.8187 61.1257 92.1816 61.1965L121.376 66.8157C121.761 66.8897 122.06 67.1514 122.14 67.4845C122.162 67.573 122.64 69.6684 121.085 71.6032C121.04 71.6588 120.987 71.71 120.928 71.7555C119.799 72.6247 117.931 73.0595 115.23 73.0595H115.231ZM92.4057 63.0093C92.0538 63.5282 91.5895 64.4694 91.9979 65.4213C92.3498 66.2405 97.1902 68.5755 105.191 70.1153C114.776 71.9597 118.274 71.3807 119.503 70.5324C120.105 69.7335 120.219 68.8909 120.219 68.3625L92.4049 63.0093H92.4057Z" fill="#FDFDFD"/>
<path d="M116.654 69.8763C112.38 69.8763 107.069 68.9155 105.579 68.6285C103.209 68.1722 91.3493 65.7336 90.6441 62.5055C90.6287 62.4353 90.6213 62.3639 90.6213 62.2931C90.6213 62.271 90.6206 62.2495 90.6176 62.2286C90.6132 62.1907 90.611 62.1528 90.611 62.1148C90.611 62.0624 90.6154 61.9973 90.6235 61.9448C90.6287 61.9157 90.6345 61.886 90.6411 61.8557C90.6456 61.8329 90.6507 61.8102 90.6566 61.788C91.126 59.9872 94.3546 59.8109 96.7413 59.8355C99.7194 59.8659 103.556 60.3052 107.544 61.0725C111.53 61.8392 115.217 62.8481 117.926 63.9125C120.098 64.7658 122.931 66.109 122.462 67.9105C122.462 67.9105 122.462 67.9105 122.462 67.9117C122.396 68.1646 122.268 68.3997 122.079 68.6096C121.234 69.5596 119.116 69.8782 116.654 69.8782V69.8763ZM93.6009 62.355C94.8262 63.2539 99.0296 65.0085 106.163 66.3814C113.295 67.755 117.967 67.7069 119.52 67.3429C118.295 66.4453 114.092 64.6906 106.96 63.3183C99.8282 61.9467 95.1553 61.9916 93.6009 62.355ZM90.6345 61.9006C90.6345 61.9006 90.6345 61.9012 90.6345 61.9018C90.6345 61.9018 90.6345 61.9012 90.6345 61.9006Z" fill="#FDFDFD"/>
<path d="M121.16 67.6601C121.541 66.1938 115.315 63.7472 107.253 62.1954C99.191 60.6435 92.3465 60.5742 91.9653 62.0404C91.5841 63.5067 97.8105 65.9533 105.872 67.5051C113.934 69.057 120.779 69.1263 121.16 67.6601Z" fill="#F1C5F9"/>
<g opacity="0.3">
<path d="M121.117 67.8264C121.403 66.7256 115.1 64.5753 107.038 63.0235C98.9762 61.4717 92.2087 61.106 91.9226 62.2067C91.6364 63.3074 97.9398 65.4577 106.002 67.0095C114.064 68.5614 120.831 68.9271 121.117 67.8264Z" fill="#FDFDFD"/>
</g>
<path d="M111.666 66.0226C111.649 66.0226 111.633 66.0226 111.616 66.0219C111.063 65.9986 110.636 65.5934 110.663 65.1174C110.679 64.8317 111.101 58.0298 114.629 50.0307C114.713 49.8404 114.798 49.6571 114.885 49.4795L108.63 47.9208C108.337 51.6773 106.902 56.8547 103.691 63.6611C103.482 64.1029 102.897 64.3159 102.384 64.1364C101.87 63.9569 101.623 63.4538 101.831 63.0119C105.252 55.7612 106.484 50.7607 106.672 47.4328L105.978 47.2596C105.542 47.1445 101.828 46.1092 101.073 43.9727C100.84 43.3172 100.798 42.2882 101.91 41.11C103.052 39.9002 104.685 39.5746 106.072 40.2807C107.541 41.0278 108.611 42.9146 108.684 46.137L115.79 47.9081C117.527 45.3551 119.511 44.7609 120.668 44.6554C122.257 44.5125 123.813 45.1162 124.631 46.2015C125.235 47.0023 125.296 47.922 124.798 48.6609C123.347 50.8075 118.825 50.2797 116.846 49.9289C116.729 50.1577 116.615 50.396 116.506 50.6438C113.097 58.3743 112.671 65.1351 112.668 65.2028C112.641 65.6642 112.197 66.0232 111.666 66.0232V66.0226ZM117.852 48.3316C119.942 48.6262 122.492 48.6363 123.062 47.7924C123.223 47.5554 123.035 47.2571 122.947 47.1401C122.611 46.6945 121.843 46.2862 120.881 46.3721C119.811 46.4701 118.763 47.1597 117.852 48.3316ZM104.559 41.6454C104.058 41.6454 103.649 42.0075 103.468 42.1991C102.795 42.9108 102.944 43.3311 102.992 43.4689C103.329 44.424 105.355 45.2862 106.553 45.6048L106.67 45.6339C106.506 43.2509 105.7 42.0967 105.05 41.7667C104.881 41.6801 104.715 41.6454 104.559 41.6454Z" fill="#FDFDFD"/>
<path d="M67.5561 20.2811C71.642 20.4454 75.6691 22.506 78.5304 24.92C79.7917 25.9844 81.6444 27.5773 81.6826 29.1917C81.7267 31.0348 79.8402 31.8648 77.9515 31.6821C74.064 31.3066 70.1265 29.2998 67.4077 26.9439C66.225 25.9187 64.6118 24.4339 64.5126 22.9188C64.4164 21.4587 65.8591 20.2185 67.5561 20.2811Z" fill="#FEDA24"/>
<path d="M78.4694 32.7144C78.2557 32.7144 78.0397 32.7043 77.8215 32.6835C73.9883 32.3131 69.7849 30.4326 66.5776 27.6539C64.9659 26.2576 63.4592 24.7248 63.3446 22.9758C63.2807 22.0018 63.7089 21.0372 64.5207 20.3299C65.3376 19.6169 66.4645 19.2338 67.6075 19.2755C67.609 19.2755 67.6104 19.2755 67.6119 19.2755C71.5494 19.4336 75.8278 21.2287 79.351 24.2008C80.6431 25.2905 82.8051 27.1147 82.8543 29.1709C82.8793 30.2012 82.4561 31.0893 81.6304 31.7379C80.8246 32.3706 79.6977 32.7144 78.4702 32.7144H78.4694ZM67.4349 21.2862C66.9743 21.2862 66.5232 21.4512 66.1868 21.7445C65.8393 22.0473 65.6549 22.455 65.6821 22.862C65.7629 24.0883 67.4356 25.5377 68.2393 26.2342C71.0403 28.6615 74.8126 30.3656 78.083 30.6816C78.8749 30.7568 79.6103 30.5969 80.0518 30.2499C80.3735 29.9977 80.5241 29.6583 80.5138 29.2126C80.4837 27.9782 78.681 26.4574 77.712 25.6401C74.6406 23.0491 70.8251 21.4221 67.5054 21.2881C67.4826 21.2875 67.4591 21.2869 67.4356 21.2869L67.4349 21.2862Z" fill="#FDFDFD"/>
<path d="M96.1448 1.39359C99.5865 3.29492 101.875 6.81314 102.949 10.1354C103.422 11.6 104.099 13.7769 103.194 15.1909C102.161 16.8059 100.045 16.7117 98.5154 15.7402C95.3683 13.7415 93.1263 10.308 92.1419 7.09821C91.7137 5.70129 91.1811 3.72158 91.9759 2.36638C92.7421 1.06111 94.7123 0.6079 96.1448 1.39296V1.39359Z" fill="#FEDA24"/>
<path d="M100.807 17.4506C99.798 17.4506 98.7461 17.1383 97.8205 16.5505C94.7175 14.5796 92.1713 11.1417 91.0107 7.35484C90.4274 5.45224 90.0138 3.47633 90.9321 1.91253C91.4433 1.04151 92.3756 0.390459 93.4892 0.127509C94.611 -0.137969 95.8084 0.0137325 96.7751 0.543425C96.7766 0.543425 96.7773 0.544689 96.7788 0.545321C100.096 2.37775 102.756 5.77461 104.078 9.86487C104.563 11.3648 105.374 13.8749 104.221 15.6763C103.643 16.5789 102.761 17.1655 101.668 17.3716C101.388 17.4247 101.1 17.4506 100.808 17.4506H100.807ZM94.5904 2.0143C94.4295 2.0143 94.2679 2.03263 94.1085 2.06992C93.6317 2.18307 93.2351 2.45613 93.0213 2.82022C92.3778 3.91689 92.9831 5.89155 93.274 6.84032C94.2877 10.148 96.5628 13.2472 99.2104 14.9292C99.8509 15.3363 100.582 15.5139 101.165 15.4033C101.59 15.323 101.918 15.0942 102.168 14.7042C102.86 13.6227 102.183 11.5292 101.82 10.404C100.668 6.83905 98.3112 3.78795 95.5145 2.24185C95.2391 2.09142 94.918 2.01367 94.5889 2.01367L94.5904 2.0143Z" fill="#FDFDFD"/>
<path d="M142.998 9.58191C142.128 13.0205 139.095 16.0937 135.852 18.1189C134.422 19.0114 132.288 20.3173 130.431 20.0809C128.312 19.811 127.676 18.0722 128.2 16.5002C129.279 13.2645 132.235 10.2589 135.388 8.34491C136.76 7.51245 138.731 6.39175 140.484 6.55989C142.172 6.72233 143.353 8.15276 142.998 9.58191Z" fill="#FEDA24"/>
<path d="M130.88 21.1162C130.673 21.1162 130.466 21.1036 130.26 21.0777C129.074 20.9266 128.128 20.4191 127.523 19.6106C126.829 18.684 126.666 17.4489 127.075 16.2226C128.139 13.0318 130.994 9.7797 134.713 7.5225C136.582 6.3879 138.593 5.36391 140.613 5.55922C141.741 5.66731 142.774 6.19195 143.449 6.9985C144.129 7.81073 144.382 8.82903 144.143 9.79297C144.143 9.79423 144.143 9.7955 144.142 9.79676C143.304 13.1114 140.532 16.4419 136.54 18.9349C135.203 19.7693 133.045 21.1169 130.88 21.1169V21.1162ZM140.119 7.55031C138.728 7.55031 136.944 8.63308 136.063 9.16846C132.814 11.14 130.233 14.0558 129.325 16.7782C129.105 17.4368 129.167 18.0879 129.491 18.5203C129.727 18.835 130.09 19.0202 130.602 19.0853C132.021 19.2636 134.066 17.9899 135.164 17.3041C138.644 15.131 141.145 12.1658 141.853 9.37137C141.954 8.96303 141.843 8.52816 141.55 8.17671C141.26 7.83159 140.824 7.6072 140.353 7.56232C140.276 7.55474 140.199 7.55094 140.119 7.55094V7.55031Z" fill="#FDFDFD"/>
<path d="M163.352 34.0861C160.635 36.7175 156.242 38.1176 152.262 38.5158C150.507 38.6916 147.902 38.9298 146.419 37.9413C144.725 36.8123 145.161 35.0286 146.513 33.8788C149.295 31.5129 153.584 30.1387 157.422 29.7993C159.092 29.6514 161.448 29.5054 162.88 30.3909C164.261 31.2443 164.475 32.9888 163.352 34.0855V34.0861Z" fill="#FEDA24"/>
<path d="M149.758 39.6826C148.337 39.6826 146.823 39.4848 145.702 38.7377C144.755 38.1062 144.218 37.2649 144.151 36.3048C144.074 35.2043 144.634 34.0589 145.689 33.1614C148.433 30.829 152.774 29.1975 157.302 28.7968C159.576 28.5964 161.908 28.5503 163.563 29.5724C164.484 30.1419 165.086 31.035 165.216 32.0223C165.346 33.0172 164.986 34.0115 164.229 34.7511C164.228 34.7517 164.228 34.753 164.226 34.7536C161.609 37.2889 157.297 39.0246 152.396 39.5145C151.665 39.5878 150.733 39.6808 149.758 39.6808V39.6826ZM159.511 30.6943C158.756 30.6943 158.033 30.7588 157.541 30.8018C153.587 31.1513 149.676 32.6051 147.335 34.5949C146.768 35.0766 146.452 35.6701 146.488 36.1834C146.514 36.557 146.726 36.8717 147.135 37.1442C148.27 37.9008 150.778 37.6492 152.126 37.5146C156.398 37.0873 160.267 35.5557 162.475 33.418C162.795 33.1045 162.946 32.6791 162.889 32.2493C162.834 31.8264 162.581 31.4471 162.196 31.2088C161.54 30.803 160.498 30.6937 159.511 30.6937V30.6943Z" fill="#FDFDFD"/>
<path d="M116.693 69.7222C112.215 69.7222 106.546 68.6672 105.615 68.4877C104.174 68.2102 91.5095 65.6844 90.8086 62.4784C90.7954 62.4171 90.7881 62.3545 90.7881 62.2926C90.7881 62.266 90.7866 62.2395 90.7837 62.2136C90.7807 62.1857 90.7785 62.1573 90.7778 62.1295C90.5479 58.1208 89.8529 54.2208 88.7128 50.5382C88.1082 48.5933 87.8232 46.5756 87.8636 44.5428C88.0906 32.7202 99.4315 23.1377 113.167 23.1377C113.207 23.1377 113.244 23.1377 113.284 23.1377C127.177 23.1921 138.48 32.9617 138.48 44.917C138.48 51.2885 135.247 57.3218 129.611 61.469C126.724 63.5915 124.186 65.9726 122.068 68.5446C121.911 68.7355 121.683 68.8726 121.423 68.934C120.422 69.5148 118.673 69.7215 116.692 69.7222H116.693ZM93.1249 62.1346C93.5553 62.8526 97.8491 64.929 106.127 66.5219C114.51 68.1363 119.442 67.8019 120.109 67.2747C120.21 67.1609 120.333 67.0718 120.468 67.0086C122.634 64.4429 125.196 62.0663 128.09 59.938C133.205 56.1739 136.139 50.6988 136.139 44.917C136.139 34.0678 125.882 25.2021 113.274 25.1528C113.239 25.1528 113.204 25.1528 113.169 25.1528C100.703 25.1528 90.4127 33.8472 90.2063 44.577C90.1688 46.4233 90.4281 48.2545 90.9761 50.0186C92.1611 53.8459 92.8817 57.8945 93.1182 62.053C93.1182 62.0543 93.1182 62.0562 93.1182 62.0581C93.1204 62.0834 93.1227 62.1086 93.1241 62.1346H93.1249Z" fill="#FDFDFD"/>
<g opacity="0.3">
<path d="M133.744 51.2632C132.964 53.1557 132.079 55.3067 129.813 57.2592C128.161 58.6833 126.984 58.9595 124.786 61.1529C124.105 61.8318 123.881 62.1409 122.12 64.0226C121.004 65.2147 120.072 66.1825 119.444 66.8291C114.026 67.0042 109.625 66.532 106.538 66.0377C101.409 65.216 98.7879 64.1534 97.2835 63.4474C95.8532 62.7755 94.7358 62.0991 93.966 61.5928C97.9123 61.7907 101.124 61.5454 103.304 61.2888C106.614 60.8994 119.109 59.2876 127.639 51.3593C129.857 49.2974 130.871 47.6786 131.319 46.898C133.594 42.9266 133.546 39.1125 133.326 37.0405C134.088 38.8464 136.366 44.8943 133.744 51.2632Z" fill="#FDFDFD"/>
</g>
<g opacity="0.7">
<path d="M94.2393 39.1853C93.7838 35.7846 97.4605 32.7841 98.6219 31.8359C99.8384 30.8429 101.145 30.2089 103.757 28.9403C105.272 28.2046 106.115 27.977 107.179 27.9871C108.393 27.9979 109.672 28.5883 110.03 29.5857C110.43 30.6963 109.578 31.889 108.469 32.5546C107.361 33.2196 106.021 33.523 104.802 34.0255C102.974 34.779 101.412 36.0014 100.366 37.4957C99.4888 38.7491 99.5938 39.2839 98.5308 40.1385C98.3038 40.3211 96.5922 41.6669 95.3779 41.1884C94.4582 40.8255 94.2943 39.6037 94.2385 39.1865L94.2393 39.1853Z" fill="#F1C5F9"/>
</g>
<g opacity="0.7">
<path d="M112.837 27.1827C112.132 27.5828 111.571 28.366 111.775 29.2237C111.987 30.1118 112.915 30.694 113.787 30.7496C114.75 30.8109 115.704 30.3444 116.239 29.6536C116.359 29.4993 116.498 29.323 116.559 29.0594C116.726 28.3401 116.192 27.5594 115.475 27.1644C114.7 26.7371 113.647 26.7238 112.837 27.1834V27.1827Z" fill="#F1C5F9"/>
</g>
</g>
<defs>
<clipPath id="clip0_565_4330">
<rect width="208" height="178" fill="white"/>
</clipPath>
</defs>
</svg>
