<svg width="100" height="32" viewBox="0 0 100 32" fill="none" xmlns="http://www.w3.org/2000/svg">
<path d="M0 16C0 7.16344 7.16344 0 16 0H50V32H16C7.16344 32 0 24.8366 0 16V16Z" fill="#FAFAFA"/>
<path d="M18.4785 19.9268V21H13.208V19.9268H18.4785ZM13.4746 11.0469V21H12.1553V11.0469H13.4746ZM17.7812 15.3262V16.3994H13.208V15.3262H17.7812ZM18.4102 11.0469V12.127H13.208V11.0469H18.4102ZM27.7686 11.0469V21H26.4424L21.4316 13.3232V21H20.1123V11.0469H21.4316L26.4629 18.7441V11.0469H27.7686ZM37.4619 16.0439V19.6875C37.3389 19.8698 37.1429 20.0749 36.874 20.3027C36.6051 20.526 36.2337 20.722 35.7598 20.8906C35.2904 21.0547 34.6842 21.1367 33.9414 21.1367C33.3353 21.1367 32.777 21.0319 32.2666 20.8223C31.7607 20.6081 31.321 20.2982 30.9473 19.8926C30.5781 19.4824 30.291 18.9857 30.0859 18.4023C29.8854 17.8145 29.7852 17.1491 29.7852 16.4062V15.6338C29.7852 14.891 29.8717 14.2279 30.0449 13.6445C30.2227 13.0612 30.4824 12.5667 30.8242 12.1611C31.166 11.751 31.5853 11.4411 32.082 11.2314C32.5788 11.0173 33.1484 10.9102 33.791 10.9102C34.5521 10.9102 35.1878 11.0423 35.6982 11.3066C36.2132 11.5664 36.6143 11.9264 36.9014 12.3867C37.193 12.847 37.3799 13.3711 37.4619 13.959H36.1426C36.0833 13.599 35.9648 13.2708 35.7871 12.9746C35.6139 12.6784 35.3656 12.4414 35.042 12.2637C34.7184 12.0814 34.3014 11.9902 33.791 11.9902C33.3307 11.9902 32.932 12.0745 32.5947 12.2432C32.2575 12.4118 31.9795 12.6533 31.7607 12.9678C31.542 13.2822 31.3779 13.6628 31.2686 14.1094C31.1637 14.556 31.1113 15.0596 31.1113 15.6201V16.4062C31.1113 16.9805 31.1774 17.4932 31.3096 17.9443C31.4463 18.3955 31.64 18.7806 31.8906 19.0996C32.1413 19.4141 32.4398 19.6533 32.7861 19.8174C33.137 19.9814 33.5244 20.0635 33.9482 20.0635C34.4176 20.0635 34.7982 20.0247 35.0898 19.9473C35.3815 19.8652 35.6094 19.7695 35.7734 19.6602C35.9375 19.5462 36.0628 19.4391 36.1494 19.3389V17.1104H33.8457V16.0439H37.4619Z" fill="#006A4E"/>
<path d="M50.5 0.5H84C92.5604 0.5 99.5 7.43959 99.5 16C99.5 24.5604 92.5604 31.5 84 31.5H50.5V0.5Z" fill="#006A4E"/>
<path d="M50.5 0.5H84C92.5604 0.5 99.5 7.43959 99.5 16C99.5 24.5604 92.5604 31.5 84 31.5H50.5V0.5Z" stroke="#FEFEFE"/>
<path d="M67.484 12.292V13.286H66.014V21H64.936C64.656 20.44 64.2687 19.9267 63.774 19.46C63.2887 18.984 62.7287 18.5827 62.094 18.256C61.4593 17.9293 60.7827 17.71 60.064 17.598L59.518 16.254C60.414 15.7127 61.338 15.2227 62.29 14.784C63.2513 14.3453 64.2407 13.972 65.258 13.664L64.936 14.252V13.286H58.86V12.292H67.484ZM64.936 14.364L65.23 14.756C64.5207 14.9893 63.774 15.2787 62.99 15.624C62.206 15.96 61.4827 16.3333 60.82 16.744C61.324 16.856 61.8607 17.0473 62.43 17.318C62.9993 17.5887 63.5267 17.9293 64.012 18.34C64.4973 18.7507 64.8707 19.2267 65.132 19.768H65.006C64.9873 19.5533 64.9687 19.3387 64.95 19.124C64.9407 18.9093 64.936 18.6527 64.936 18.354V14.364ZM71.2038 12.292V13.286H69.7338V21H68.6558V14.434C68.5438 14.1167 68.3758 13.846 68.1518 13.622C67.9372 13.398 67.6572 13.286 67.3118 13.286H67.1998V12.292H67.4098C67.6338 12.292 67.8672 12.3667 68.1098 12.516C68.3525 12.656 68.5485 12.8753 68.6978 13.174C68.6885 13.1273 68.6792 13.02 68.6698 12.852C68.6605 12.684 68.6558 12.5393 68.6558 12.418V11.368H69.4118L69.7198 12.292H71.2038ZM72.7806 16.604C73.3686 16.9587 73.9239 17.3833 74.4466 17.878C74.9786 18.3633 75.4593 18.886 75.8886 19.446C76.3273 20.006 76.6959 20.5613 76.9946 21.112L76.0846 21.574C75.7019 20.986 75.3193 20.4587 74.9366 19.992C74.5633 19.516 74.1479 19.0773 73.6906 18.676C73.2426 18.2747 72.7059 17.8827 72.0806 17.5L72.7806 16.604ZM72.1506 14.196C72.1506 13.8133 72.2346 13.482 72.4026 13.202C72.5799 12.9127 72.8179 12.6887 73.1166 12.53C73.4153 12.3713 73.7513 12.292 74.1246 12.292C74.4979 12.292 74.8339 12.3713 75.1326 12.53C75.4313 12.6887 75.6646 12.9127 75.8326 13.202C76.0099 13.482 76.0986 13.8133 76.0986 14.196C76.0986 14.5787 76.0099 14.9147 75.8326 15.204C75.6646 15.4933 75.4313 15.7173 75.1326 15.876C74.8339 16.0347 74.4979 16.114 74.1246 16.114C73.7513 16.114 73.4153 16.0347 73.1166 15.876C72.8179 15.7173 72.5799 15.498 72.4026 15.218C72.2346 14.9287 72.1506 14.588 72.1506 14.196ZM73.1166 14.196C73.1166 14.5133 73.2099 14.7607 73.3966 14.938C73.5926 15.1153 73.8353 15.204 74.1246 15.204C74.4233 15.204 74.6659 15.1153 74.8526 14.938C75.0393 14.7513 75.1326 14.504 75.1326 14.196C75.1326 13.8787 75.0393 13.636 74.8526 13.468C74.6659 13.2907 74.4233 13.202 74.1246 13.202C73.8353 13.202 73.5926 13.2953 73.3966 13.482C73.2099 13.6593 73.1166 13.8973 73.1166 14.196ZM87.5713 12.292V13.286H86.1013V21H85.0233V16.31L85.1073 16.674C84.9019 16.3753 84.6826 16.1373 84.4493 15.96C84.2253 15.7827 83.9779 15.694 83.7073 15.694C83.5673 15.694 83.4226 15.722 83.2733 15.778C83.1333 15.8247 83.0119 15.918 82.9093 16.058C82.8159 16.198 82.7693 16.4127 82.7693 16.702C82.7693 16.8047 82.7693 16.898 82.7693 16.982C82.7786 17.0567 82.7879 17.1313 82.7973 17.206L81.8873 17.276C81.8499 16.8933 81.7473 16.5713 81.5793 16.31C81.4113 16.0393 81.2059 15.834 80.9633 15.694C80.7206 15.554 80.4593 15.484 80.1793 15.484C79.9273 15.484 79.7126 15.5353 79.5353 15.638C79.3579 15.7313 79.2226 15.862 79.1293 16.03C79.0359 16.1887 78.9893 16.3707 78.9893 16.576C78.9893 16.9493 79.1246 17.2667 79.3953 17.528C79.6753 17.7893 80.0673 18.0087 80.5713 18.186L80.1933 19.222C79.7453 19.082 79.3439 18.8907 78.9893 18.648C78.6346 18.4053 78.3546 18.1067 78.1493 17.752C77.9439 17.3973 77.8413 16.9867 77.8413 16.52C77.8413 16.1 77.9439 15.7407 78.1493 15.442C78.3546 15.134 78.6299 14.896 78.9753 14.728C79.3206 14.56 79.6986 14.476 80.1093 14.476C80.6039 14.476 81.0286 14.5693 81.3833 14.756C81.7379 14.9333 82.0646 15.2227 82.3633 15.624L82.1533 15.638C82.2466 15.33 82.4239 15.0967 82.6853 14.938C82.9559 14.77 83.2359 14.686 83.5253 14.686C83.8613 14.686 84.1506 14.7513 84.3933 14.882C84.6359 15.0127 84.9019 15.1993 85.1913 15.442L85.0653 15.652C85.0559 15.456 85.0466 15.26 85.0373 15.064C85.0279 14.868 85.0233 14.6673 85.0233 14.462V13.286H77.0573V12.292H87.5713ZM91.3015 12.292V13.286H89.8315V21H88.7535V14.434C88.6415 14.1167 88.4735 13.846 88.2495 13.622C88.0348 13.398 87.7548 13.286 87.4095 13.286H87.2975V12.292H87.5075C87.7315 12.292 87.9648 12.3667 88.2075 12.516C88.4502 12.656 88.6462 12.8753 88.7955 13.174C88.7862 13.1273 88.7768 13.02 88.7675 12.852C88.7582 12.684 88.7535 12.5393 88.7535 12.418V11.368H89.5095L89.8175 12.292H91.3015Z" fill="#FEFEFE"/>
</svg>
